<?xml version="1.0" encoding="utf-8"?>
<!-- Generator: Adobe Illustrator 23.0.0, SVG Export Plug-In . SVG Version: 6.00 Build 0)  -->
<svg version="1.1" id="Layer_1" xmlns="http://www.w3.org/2000/svg" xmlns:xlink="http://www.w3.org/1999/xlink" x="0px" y="0px"
	 viewBox="0 0 500 500" style="enable-background:new 0 0 500 500;" xml:space="preserve">
<style type="text/css">
	.st0{fill:#FFFFFF;}
</style>
<g>
	<rect x="448.9" y="134.8" class="st0" width="13.8" height="13.2"/>
	<rect x="364.1" y="62.3" class="st0" width="13.8" height="13.2"/>
	<rect x="448.9" y="168.1" class="st0" width="13.8" height="13.2"/>
	<rect x="448.9" y="201.4" class="st0" width="13.8" height="13.2"/>
	<rect x="134.6" y="291" class="st0" width="13.8" height="13.2"/>
	<rect x="245.4" y="62.3" class="st0" width="100.6" height="13.2"/>
	<rect x="173.9" y="32.8" class="st0" width="110.9" height="13.2"/>
	<path class="st0" d="M249.7,237H307v-13.2h-57.3c-0.7,0-1.3-0.6-1.3-1.3v-59.7c0-0.7,0.6-1.3,1.3-1.3H377c0.7,0,1.3,0.6,1.3,1.3
		v20.4h13.2v-20.4c0-8-6.5-14.5-14.5-14.5H249.7c-8,0-14.5,6.5-14.5,14.5v59.7C235.2,230.5,241.7,237,249.7,237z"/>
	<path class="st0" d="M248.4,323.7h48.3c7.2,0,13.1-5.9,13.1-13.1v-48.3c0-7.2-5.9-13.1-13.1-13.1h-48.3c-7.2,0-13.1,5.9-13.1,13.1
		v48.3C235.2,317.8,241.1,323.7,248.4,323.7z M296.5,262.3v48.2l-48.1,0.1l-0.1-48.2L296.5,262.3z"/>
	<path class="st0" d="M315.6,182.1l14.3,80.2h38.8l13.2,13.2l8.3-8.3l-8-8l10.1-10.1l8,8l8.3-8.3L395.8,236v-39.5L315.6,182.1z
		 M331.9,206.7l20.3,20.3l8.3-8.3l-20.3-20.3l43.8,7.8v34.5l-9.7,9.7h-34.5L331.9,206.7z"/>
	<rect x="342.4" y="453.3" class="st0" width="157.6" height="13.2"/>
	<path class="st0" d="M216.3,417.8V431h180.8v-13.2h-17.9l-23-27.5h104.6c20.6,0,37.3-16.7,37.3-37.3V136.1
		c0-20.5-16.7-37.3-37.3-37.3H190.5c-20.5,0-37.3,16.7-37.3,37.3v4h-53c-13.1,0-23.7,10.6-23.7,23.7v44.7l-44.1,43.6
		c-9.7,9.6-15.2,22.9-15.2,36.5v106.3C7.4,397.5,0,406.8,0,417.9v49.3h13.2v-49.3c0-5.8,4.2-10.5,9.4-10.5h77.2
		c5.2,0,9.4,4.7,9.4,10.5v49.3h13.2v-49.3c0-11.1-7.4-20.4-17.3-23v-0.7c0-11.9,4.5-23.2,12.7-31.9l22.7-23.9h12.7V353
		c0,20.5,16.7,37.3,37.3,37.3h104l-23.1,27.5H216.3z M100.3,153.2h82.5c5.8,0,10.5,4.7,10.5,10.5v93.1H89.8V214v-1.3v-2.4v-46.5
		C89.8,158,94.5,153.2,100.3,153.2z M115.2,270h78.1v44.7c0,5.8-4.7,10.5-10.5,10.5h-82.5c-3.8,0-7.1-2.1-9-5.2l20.8-24.7
		C118.6,287.7,119.5,277.4,115.2,270z M108.3,353.2c-10.5,11.1-16.3,25.7-16.3,41H30.5V288.6c0-10.1,4.1-20,11.3-27.1l34.8-34.4v48
		l-26.5,31.3l10.1,8.5l31.3-37.1c1.7-2,4-3.4,6.3-3.8c1.1-0.2,3.3-0.3,5,1.1c2.9,2.4,2.5,7.7-0.7,11.6L56.3,341
		c-1.5,1.8-3.5,3.1-5.6,3.6l3.3,12.8c4.7-1.2,9.1-4,12.4-7.9l16.2-19.2c4.4,5,10.7,8,17.7,8h22.1L108.3,353.2z M166.4,353v-14.6
		h16.4c13.1,0,23.7-10.6,23.7-23.7v-151c0-13.1-10.6-23.7-23.7-23.7h-16.4v-4c0-13.3,10.8-24.1,24.1-24.1h270.3
		c13.3,0,24.1,10.8,24.1,24.1v203.8H218.9v13.2h265.9c0,13.2-10.8,24-24.1,24H190.5C177.2,377.1,166.4,366.3,166.4,353z
		 M311.7,390.3H339l23,27.5h-73.3L311.7,390.3z"/>
	<rect x="414.7" y="417.8" class="st0" width="19.7" height="13.2"/>
</g>
</svg>
