<?xml version="1.0" encoding="utf-8"?>
<!-- Generator: Adobe Illustrator 23.0.0, SVG Export Plug-In . SVG Version: 6.00 Build 0)  -->
<svg version="1.1" id="Layer_1" xmlns="http://www.w3.org/2000/svg" xmlns:xlink="http://www.w3.org/1999/xlink" x="0px" y="0px"
	 viewBox="0 0 500 500" style="enable-background:new 0 0 500 500;" xml:space="preserve">
<style type="text/css">
	.st0{fill:#FFFFFF;}
</style>
<g>
	<path class="st0" d="M438.4,66.3H164.1c-30.4,0-55,23.4-55,52.1v187.9h16.1V118.3c0-19.8,17.5-36,38.9-36h274.3
		c21.5,0,38.9,16.1,38.9,36V307H219.5v16.1h257.8c-0.9,15.7-13.9,28.2-29.8,28.2H319.2v16.1h21.2l14.4,40.8H247.8l14.4-40.8h21.2
		v-16.1h-62.7v16.1H247l-14.4,40.8h-29.9c-6.5-37.2-2.9-76.4-2.8-77l0.9-8.8H16.4l-0.8,7.2C15,334.5,2.7,451.6,57,482.7
		c14.2,8.1,27.7,10.9,40.2,8.4h151.3c3.2,0.6,6.4,0.9,9.5,0.9c5.4,0,10.7-0.9,15.7-2.8c24.5-9,34.7-36.6,35.1-37.8l3.9-10.8H211.9
		c-2.5-5.7-4.5-11.8-6.1-18.1h237.9v-14.3h-73.8l-14.4-40.8h92c24.8,0,45-19.7,45.9-44.3h0V118.3C493.5,89.6,468.8,66.3,438.4,66.3z
		 M30.9,338.4h152.3c-1.1,19.3-1.9,65.7,11.6,102.2H152c4.7-5.6,8.4-12.5,10.9-20.7c5.4-17.4,5-39.1-1-61.2l-2.2-7.9l-7.6,3.2
		c-0.8,0.4-10.5,4.6-21.6,12.8l-28-15.9l-15.9,28c-13.8-1.4-24.4-0.1-25.1,0l-8.2,1.1l2.2,7.9c0.7,2.6,1.5,5.1,2.3,7.5
		c12,35.9,36.2,59.5,61,60.4c-4.2,6.6-10.9,14.8-20.4,18.3c-9.7,3.6-20.9,1.7-33.4-5.4C30.1,448.8,28.3,373.7,30.9,338.4z
		 M111.8,384.4c-3.4-1.3-6.8-2.3-10.1-3.1l6.3-11l11,6.3C116.4,379,114,381.6,111.8,384.4z M103.7,396.8c-1.6,3.1-3,6.4-4.1,9.9
		l13.7,4.2c6.1-19.9,25.8-33.5,36.8-39.8c0.1,0.4,0.2,0.8,0.3,1.3c0.1,0.5,0.2,0.9,0.3,1.4c0.1,0.8,0.3,1.5,0.4,2.2
		c0.1,0.4,0.1,0.7,0.2,1.1c0.2,1.1,0.3,2.2,0.4,3.2c0,0.3,0.1,0.7,0.1,1c0.1,0.8,0.2,1.5,0.2,2.3c0,0.4,0.1,0.8,0.1,1.3
		c0.1,0.7,0.1,1.3,0.1,2c0,0.4,0,0.9,0.1,1.3c0,0.6,0.1,1.3,0.1,1.9c0,0.4,0,0.9,0,1.3c0,0.7,0,1.3,0,2c0,0.4,0,0.8,0,1.2
		c0,0.8,0,1.6-0.1,2.4c0,0.2,0,0.4,0,0.6c0,1-0.1,2-0.2,3c0,0.3-0.1,0.6-0.1,0.9c-0.1,0.7-0.1,1.4-0.2,2.1c0,0.4-0.1,0.7-0.1,1.1
		c-0.1,0.6-0.2,1.2-0.3,1.8c-0.1,0.4-0.1,0.7-0.2,1.1c-0.1,0.6-0.2,1.2-0.3,1.8c-0.1,0.3-0.1,0.7-0.2,1c-0.1,0.6-0.3,1.2-0.4,1.9
		c-0.1,0.3-0.1,0.6-0.2,0.9c-0.2,0.9-0.5,1.8-0.7,2.6c-4.1,13.3-12,22.1-22.1,24.9c0,0-0.1,0-0.1,0h-1.3l-0.1,0.3
		c-0.2,0-0.4,0.1-0.6,0.1c-0.2,0-0.4,0.1-0.5,0.1c-0.5,0.1-1,0.2-1.5,0.2c-0.2,0-0.4,0-0.7,0.1c-0.5,0-0.9,0.1-1.4,0.1
		c-0.2,0-0.5,0-0.7,0c-0.5,0-0.9,0-1.4,0c-0.2,0-0.5,0-0.7,0c-0.5,0-0.9-0.1-1.4-0.1c-0.2,0-0.5-0.1-0.7-0.1
		c-0.5-0.1-0.9-0.1-1.4-0.2c-0.2,0-0.4-0.1-0.7-0.1c-0.5-0.1-1-0.2-1.4-0.4c-0.2-0.1-0.4-0.1-0.6-0.2c-0.5-0.1-1-0.3-1.5-0.5
		c-0.2-0.1-0.4-0.1-0.6-0.2c-0.5-0.2-1.1-0.4-1.6-0.6c-0.2-0.1-0.3-0.1-0.5-0.2c-0.6-0.3-1.2-0.5-1.7-0.8c-0.1,0-0.2-0.1-0.3-0.1
		c-2.8-1.4-5.5-3.2-8.1-5.3c-0.1,0-0.1-0.1-0.1-0.1c-0.6-0.5-1.2-1-1.8-1.5c-0.1-0.1-0.2-0.2-0.4-0.3c-0.5-0.5-1-0.9-1.5-1.4
		c-0.2-0.1-0.3-0.3-0.5-0.4c-0.5-0.5-0.9-0.9-1.4-1.4c-0.2-0.2-0.3-0.4-0.5-0.5c-0.4-0.5-0.9-1-1.3-1.5c-0.2-0.2-0.3-0.4-0.5-0.6
		c-0.4-0.5-0.9-1-1.3-1.5c-0.2-0.2-0.4-0.4-0.5-0.7c-0.4-0.5-0.8-1.1-1.2-1.6c-0.2-0.2-0.3-0.5-0.5-0.7c-0.4-0.6-0.8-1.1-1.2-1.7
		c-0.2-0.2-0.3-0.5-0.5-0.7c-0.4-0.6-0.8-1.2-1.2-1.8c-0.1-0.2-0.3-0.4-0.4-0.7c-0.4-0.7-0.9-1.4-1.3-2.1c-0.1-0.2-0.2-0.3-0.3-0.5
		c-1.1-1.8-2.1-3.7-3.1-5.6c0-0.1-0.1-0.2-0.1-0.3c-0.4-0.9-0.9-1.7-1.3-2.6c-0.1-0.3-0.3-0.6-0.4-0.9c-0.3-0.7-0.6-1.4-0.9-2.1
		c-0.2-0.4-0.3-0.8-0.5-1.2c-0.3-0.6-0.5-1.3-0.8-1.9c-0.2-0.4-0.3-0.9-0.5-1.3c-0.2-0.6-0.5-1.2-0.7-1.8c-0.2-0.5-0.3-1-0.5-1.4
		c-0.1-0.3-0.2-0.7-0.4-1C79.9,392.4,91.9,393,103.7,396.8z M288,456.7c-4.2,6.5-10.8,14-19.8,17.4c-9.7,3.6-20.9,1.7-33.4-5.4
		c-5.2-3-9.7-7.1-13.5-12H288z M218.4,476.8h-95.6c7-7,11.5-14.9,14-20h65.5C206.6,464.5,211.9,471.3,218.4,476.8z"/>
	<path class="st0" d="M309.3,268.5v-17.8c35-5.8,60.5-49,60.5-105v-8.2l-8.1,1.1c-1.1,0.2-15.1,2.2-31.8,8.8l-28.6-28.6l-28.7,28.7
		c-16.8-6.7-30.8-8.7-31.8-8.8l-8.1-1.1v8.2c0,56,25.5,99.3,60.5,105v17.8H309.3z M298.5,236.9c-0.3,0-0.6-0.1-0.9-0.1
		c-0.6-0.1-1.2-0.1-1.8-0.2c-0.4-0.1-0.7-0.1-1.1-0.2c-0.5-0.1-1.1-0.2-1.6-0.3c-0.4-0.1-0.7-0.2-1.1-0.3c-0.5-0.1-1-0.3-1.5-0.4
		c-0.4-0.1-0.8-0.3-1.1-0.4c-0.5-0.2-1-0.3-1.5-0.5c-0.4-0.2-0.8-0.3-1.1-0.5c-0.5-0.2-1-0.4-1.4-0.7c-0.4-0.2-0.7-0.4-1.1-0.6
		c-0.5-0.2-0.9-0.5-1.4-0.8c-0.4-0.2-0.7-0.4-1.1-0.7c-0.5-0.3-0.9-0.6-1.3-0.9c-0.4-0.2-0.7-0.5-1.1-0.7c-0.4-0.3-0.9-0.6-1.3-1
		c-0.3-0.3-0.7-0.5-1-0.8c-0.4-0.3-0.9-0.7-1.3-1.1c-0.3-0.3-0.7-0.6-1-0.9c-0.4-0.4-0.8-0.8-1.3-1.2c-0.3-0.3-0.6-0.6-0.9-0.9
		c-0.4-0.4-0.8-0.9-1.2-1.3c-0.3-0.3-0.6-0.6-0.9-1c-0.4-0.5-0.8-0.9-1.2-1.4c-0.3-0.3-0.6-0.7-0.8-1c-0.4-0.5-0.8-1-1.2-1.6
		c-0.3-0.3-0.5-0.7-0.8-1c-0.4-0.6-0.8-1.2-1.2-1.8c-0.2-0.3-0.4-0.6-0.7-1c-0.5-0.7-0.9-1.5-1.4-2.2c-0.1-0.2-0.3-0.4-0.4-0.7
		c-0.6-1-1.2-2-1.7-3.1c-0.1-0.2-0.2-0.5-0.4-0.7c-0.4-0.8-0.9-1.6-1.3-2.5c-0.2-0.4-0.4-0.8-0.6-1.3c-0.3-0.7-0.6-1.4-1-2.1
		c-0.2-0.5-0.4-1-0.6-1.5c-0.3-0.7-0.6-1.3-0.8-2c-0.2-0.5-0.4-1.1-0.6-1.6c-0.2-0.6-0.5-1.3-0.7-1.9c-0.2-0.6-0.4-1.2-0.6-1.8
		c-0.2-0.6-0.4-1.3-0.6-1.9c-0.2-0.6-0.4-1.2-0.6-1.9c-0.2-0.6-0.4-1.3-0.6-2c-0.2-0.6-0.4-1.3-0.5-1.9c-0.2-0.7-0.3-1.3-0.5-2
		c-0.2-0.7-0.3-1.4-0.5-2c-0.2-0.7-0.3-1.3-0.4-2c-0.2-0.7-0.3-1.4-0.4-2.1c-0.1-0.7-0.3-1.3-0.4-2c-0.1-0.7-0.3-1.5-0.4-2.2
		c-0.1-0.7-0.2-1.3-0.3-2c-0.1-0.8-0.2-1.5-0.3-2.3c-0.1-0.7-0.2-1.3-0.3-2c-0.1-0.8-0.2-1.6-0.3-2.4c-0.1-0.6-0.1-1.3-0.2-1.9
		c-0.1-0.8-0.2-1.7-0.2-2.5c-0.1-0.6-0.1-1.3-0.1-1.9c-0.1-0.9-0.1-1.8-0.2-2.7c0-0.1,0-0.2,0-0.3c10.1,2.4,27.7,7.7,42.9,18.2
		c-3.6,3.7-6.9,7.8-9.8,12.3l12.1,7.7c15.5-24.4,47.6-34.6,62.8-38.2c0,0.1,0,0.2,0,0.3c0,0.8-0.1,1.7-0.2,2.5
		c0,0.7-0.1,1.4-0.1,2.1c-0.1,0.8-0.1,1.6-0.2,2.4c-0.1,0.7-0.1,1.4-0.2,2.1c-0.1,0.8-0.2,1.5-0.3,2.3c-0.1,0.7-0.2,1.4-0.3,2.1
		c-0.1,0.7-0.2,1.5-0.3,2.2c-0.1,0.7-0.2,1.4-0.3,2.1c-0.1,0.7-0.3,1.4-0.4,2.2c-0.1,0.7-0.3,1.4-0.4,2c-0.1,0.7-0.3,1.4-0.4,2.1
		c-0.1,0.7-0.3,1.3-0.5,2c-0.2,0.7-0.3,1.4-0.5,2c-0.2,0.7-0.3,1.3-0.5,2c-0.2,0.7-0.3,1.3-0.5,1.9c-0.2,0.7-0.4,1.3-0.6,1.9
		c-0.2,0.6-0.4,1.3-0.6,1.9c-0.2,0.6-0.4,1.3-0.6,1.9c-0.2,0.6-0.4,1.2-0.6,1.8c-0.2,0.6-0.5,1.2-0.7,1.9c-0.2,0.6-0.4,1.1-0.7,1.7
		c-0.2,0.6-0.5,1.2-0.8,1.8c-0.2,0.5-0.4,1.1-0.7,1.6c-0.3,0.6-0.6,1.2-0.8,1.8c-0.2,0.5-0.5,1-0.7,1.5c-0.3,0.7-0.7,1.3-1,2
		c-0.2,0.4-0.4,0.8-0.6,1.2c-0.6,1-1.1,2-1.7,3c-0.2,0.4-0.4,0.7-0.7,1.1c-0.4,0.6-0.8,1.2-1.1,1.8c-0.3,0.4-0.5,0.8-0.8,1.2
		c-0.4,0.5-0.7,1.1-1.1,1.6c-0.3,0.4-0.6,0.8-0.9,1.2c-0.4,0.5-0.7,1-1.1,1.4c-0.3,0.4-0.6,0.8-0.9,1.1c-0.4,0.4-0.7,0.9-1.1,1.3
		c-0.3,0.4-0.7,0.7-1,1.1c-0.4,0.4-0.8,0.8-1.1,1.2c-0.3,0.3-0.7,0.7-1,1c-0.4,0.4-0.8,0.7-1.2,1.1c-0.4,0.3-0.7,0.6-1.1,0.9
		c-0.4,0.3-0.8,0.7-1.2,1c-0.4,0.3-0.7,0.6-1.1,0.9c-0.4,0.3-0.8,0.6-1.2,0.9c-0.4,0.3-0.7,0.5-1.1,0.8c-0.4,0.3-0.9,0.6-1.3,0.8
		c-0.4,0.2-0.8,0.5-1.1,0.7c-0.4,0.3-0.9,0.5-1.3,0.7c-0.4,0.2-0.8,0.4-1.2,0.6c-0.5,0.2-0.9,0.4-1.4,0.6c-0.4,0.2-0.8,0.3-1.2,0.5
		c-0.5,0.2-1,0.4-1.4,0.5c-0.4,0.1-0.8,0.3-1.2,0.4c-0.5,0.2-1,0.3-1.5,0.4c-0.4,0.1-0.8,0.2-1.1,0.3c-0.5,0.1-1.1,0.2-1.6,0.3
		c-0.4,0.1-0.7,0.1-1.1,0.2c-0.6,0.1-1.2,0.2-1.8,0.2c-0.3,0-0.6,0.1-0.9,0.1c-0.9,0.1-1.9,0.1-2.8,0.1
		C300.3,237.1,299.4,237,298.5,236.9z M301.3,139l14.7,14.8c-5,2.6-10,5.7-14.8,9.3c-4.8-3.6-9.8-6.6-14.8-9.2L301.3,139z"/>
	<rect x="440.2" y="202.1" class="st0" width="16.1" height="15.9"/>
	<rect x="440.2" y="228.7" class="st0" width="16.1" height="15.9"/>
	<rect x="440.2" y="255.3" class="st0" width="16.1" height="15.9"/>
	<rect x="154.2" y="118.2" class="st0" width="16.1" height="15.9"/>
	<rect x="154.2" y="144.8" class="st0" width="16.1" height="15.9"/>
	<rect x="293.2" y="350.8" class="st0" width="16.1" height="17"/>
	<rect x="453.6" y="406.9" class="st0" width="16.1" height="16.9"/>
	<rect x="403.5" y="34.2" class="st0" width="16.1" height="17"/>
	<rect x="154.2" y="171.4" class="st0" width="16.1" height="15.9"/>
	<rect x="301.3" y="34.6" class="st0" width="87.3" height="16.1"/>
	<rect x="43.8" y="8" class="st0" width="16.1" height="36"/>
	<rect x="43.8" y="73.9" class="st0" width="16.1" height="37.2"/>
	<rect x="6.5" y="50.4" class="st0" width="30" height="16.1"/>
	<rect x="65.6" y="50.4" class="st0" width="31.5" height="16.1"/>
</g>
</svg>
