<svg id="e911e2db-e534-4064-a76d-e5ae444f04b0" data-name="Layer 1" xmlns="http://www.w3.org/2000/svg" viewBox="0 0 2000 478.18"><defs><style>.b2cf363b-243e-47bb-9aee-cc1a742ef138{font-size:392.15px;fill:#2f375c;font-family:HurmeGeometricSans1-SemiBold, "Hurme Geometric Sans 1";font-weight:600;}.fb1cc39c-c47f-44aa-8766-39dc3a9dfe27{letter-spacing:-0.02em;}.f3251c80-e2f8-4f5d-aa78-c35c47f6d1ab{letter-spacing:-0.02em;}.f642c146-dafa-4c64-b0e1-47ba0bf1720e{fill:#556b7c;}.a0f62389-a33a-43ba-ba62-8f34a7578868{fill:#63929e;}</style></defs><title>logo_w</title><text class="b2cf363b-243e-47bb-9aee-cc1a742ef138" transform="translate(676.52 362.32)"><tspan class="fb1cc39c-c47f-44aa-8766-39dc3a9dfe27">s</tspan><tspan class="f3251c80-e2f8-4f5d-aa78-c35c47f6d1ab" x="166.66" y="0">w</tspan><tspan x="450.18" y="0">ebai.</tspan></text><polygon class="f642c146-dafa-4c64-b0e1-47ba0bf1720e" points="290.06 235.84 244.36 201.7 287.62 170.05 388.06 96.58 433.08 130.73 333.56 203.87 290.06 235.84"/><polygon class="f642c146-dafa-4c64-b0e1-47ba0bf1720e" points="45.1 347.45 144.86 274.48 189.17 242.06 235.34 276.06 191.13 308.54 91.79 381.53 45.1 347.45"/><polygon class="a0f62389-a33a-43ba-ba62-8f34a7578868" points="0 167.85 228.04 0 273.71 33.64 88.36 167.85 189.17 242.06 235.34 276.06 272.88 303.7 228.04 335.71 191.13 308.54 144.86 274.48 0 167.85"/><polygon class="a0f62389-a33a-43ba-ba62-8f34a7578868" points="244.36 201.7 207.9 174.48 250.14 142.46 287.62 170.05 333.56 203.87 478.18 310.32 250.14 478.18 203.53 444.48 389.82 310.32 290.06 235.84 244.36 201.7"/></svg>