<svg id="a9bef491-6313-4b0a-9f94-22c89346aba2" data-name="Layer 1" xmlns="http://www.w3.org/2000/svg" viewBox="0 0 2000 478.18"><defs><style>.bac1fb1d-1bc6-4cde-97a4-d30f2ad6818a{font-size:392.15px;font-family:HurmeGeometricSans1-SemiBold, "Hurme Geometric Sans 1";font-weight:600;letter-spacing:-0.02em;}.b9f39692-f1a2-4f05-b3b1-71dd06ceb4d6,.bac1fb1d-1bc6-4cde-97a4-d30f2ad6818a{fill:#eef1f3;}.e538a252-9902-49c1-a17a-d7746bf851cd{letter-spacing:-0.02em;}.abba2497-c073-4e29-9e46-658172a7598d{letter-spacing:0em;}.bb4f5400-48f0-4b2f-a503-e0acd25771d1{fill:#556b7c;}</style></defs><title>logo_b</title><text class="bac1fb1d-1bc6-4cde-97a4-d30f2ad6818a" transform="translate(676.52 362.32)">s<tspan class="e538a252-9902-49c1-a17a-d7746bf851cd" x="166.66" y="0">w</tspan><tspan class="abba2497-c073-4e29-9e46-658172a7598d" x="450.18" y="0">ebai.</tspan></text><polygon class="bb4f5400-48f0-4b2f-a503-e0acd25771d1" points="290.06 235.84 244.36 201.7 287.62 170.05 388.06 96.58 433.08 130.73 333.56 203.87 290.06 235.84"/><polygon class="bb4f5400-48f0-4b2f-a503-e0acd25771d1" points="45.1 347.45 144.86 274.48 189.17 242.06 235.33 276.06 191.13 308.54 91.79 381.53 45.1 347.45"/><polygon class="b9f39692-f1a2-4f05-b3b1-71dd06ceb4d6" points="0 167.85 228.04 0 273.71 33.64 88.36 167.85 189.17 242.06 235.33 276.06 272.88 303.7 228.04 335.71 191.13 308.54 144.86 274.48 0 167.85"/><polygon class="b9f39692-f1a2-4f05-b3b1-71dd06ceb4d6" points="244.36 201.7 207.9 174.48 250.14 142.46 287.62 170.05 333.56 203.87 478.18 310.32 250.14 478.18 203.53 444.48 389.82 310.32 290.06 235.84 244.36 201.7"/></svg>