<svg id="f994814c-b147-4f96-93ee-17b9c93421a7" data-name="Layer 1" xmlns="http://www.w3.org/2000/svg" viewBox="0 0 2000 2000"><defs><style>.bd9a089b-0e1f-401f-9383-995bc5b87f49{fill:#556b7c;}.ad462f05-fb8d-4ce7-8170-e5f59cfbcc42{fill:#63929e;}</style></defs><title>logomark</title><polygon class="bd9a089b-0e1f-401f-9383-995bc5b87f49" points="1213.19 986.39 1022.02 843.62 1202.99 711.24 1623.06 403.96 1811.38 546.79 1395.12 852.67 1213.19 986.39"/><polygon class="bd9a089b-0e1f-401f-9383-995bc5b87f49" points="188.62 1453.21 605.88 1148.02 791.2 1012.44 984.29 1154.62 799.39 1290.47 383.92 1595.77 188.62 1453.21"/><polygon class="ad462f05-fb8d-4ce7-8170-e5f59cfbcc42" points="0 702.02 953.78 0 1144.78 140.69 369.55 702.02 791.2 1012.44 984.29 1154.62 1141.32 1270.22 953.78 1404.1 799.39 1290.47 605.88 1148.02 0 702.02"/><polygon class="ad462f05-fb8d-4ce7-8170-e5f59cfbcc42" points="1022.02 843.62 869.55 729.78 1046.21 595.85 1202.99 711.24 1395.12 852.67 2000 1297.92 1046.21 2000 851.29 1859.04 1630.41 1297.92 1213.19 986.39 1022.02 843.62"/></svg>