<?xml version="1.0" encoding="utf-8"?>
<!-- Generator: Adobe Illustrator 23.0.0, SVG Export Plug-In . SVG Version: 6.00 Build 0)  -->
<svg version="1.1" id="Layer_1" xmlns="http://www.w3.org/2000/svg" xmlns:xlink="http://www.w3.org/1999/xlink" x="0px" y="0px"
	 viewBox="0 0 500 500" style="enable-background:new 0 0 500 500;" xml:space="preserve">
<style type="text/css">
	.st0{fill:#FFFFFF;}
</style>
<g>
	<path class="st0" d="M377.3,278.8c0,5.2,4.2,9.4,9.4,9.4c5.2,0,9.4-4.2,9.4-9.4s-4.2-9.4-9.4-9.4
		C381.5,269.4,377.3,273.6,377.3,278.8z"/>
	<path class="st0" d="M403.2,233.2c-5.2,0-9.4,4.2-9.4,9.4c0,5.2,4.2,9.4,9.4,9.4c5.2,0,9.4-4.2,9.4-9.4
		C412.6,237.4,408.4,233.2,403.2,233.2z"/>
	<path class="st0" d="M435.3,215.8c-5.2,0-9.4,4.2-9.4,9.4c0,5.2,4.2,9.4,9.4,9.4c5.2,0,9.4-4.2,9.4-9.4
		C444.7,220,440.5,215.8,435.3,215.8z"/>
	<path class="st0" d="M483.9,269.4c-5.2,0-9.4,4.2-9.4,9.4s4.2,9.4,9.4,9.4c5.2,0,9.4-4.2,9.4-9.4S489.1,269.4,483.9,269.4z"/>
	<path class="st0" d="M467.4,252c5.2,0,9.4-4.2,9.4-9.4c0-5.2-4.2-9.4-9.4-9.4c-5.2,0-9.4,4.2-9.4,9.4
		C458,247.8,462.2,252,467.4,252z"/>
	<path class="st0" d="M467.4,297.6c-5.2,0-9.4,4.2-9.4,9.4c0,5.2,4.2,9.4,9.4,9.4c5.2,0,9.4-4.2,9.4-9.4
		C476.8,301.8,472.6,297.6,467.4,297.6z"/>
	<path class="st0" d="M435.3,315c-5.2,0-9.4,4.2-9.4,9.4c0,5.2,4.2,9.4,9.4,9.4c5.2,0,9.4-4.2,9.4-9.4
		C444.7,319.3,440.5,315,435.3,315z"/>
	<path class="st0" d="M403.2,297.6c-5.2,0-9.4,4.2-9.4,9.4c0,5.2,4.2,9.4,9.4,9.4c5.2,0,9.4-4.2,9.4-9.4
		C412.6,301.8,408.4,297.6,403.2,297.6z"/>
	<path class="st0" d="M16.1,411.6c-5.2,0-9.4,4.2-9.4,9.4s4.2,9.4,9.4,9.4c5.2,0,9.4-4.2,9.4-9.4S21.3,411.6,16.1,411.6z"/>
	<path class="st0" d="M32.6,375.4c-5.2,0-9.4,4.2-9.4,9.4c0,5.2,4.2,9.4,9.4,9.4c5.2,0,9.4-4.2,9.4-9.4
		C42,379.6,37.8,375.4,32.6,375.4z"/>
	<path class="st0" d="M64.7,457.2c-5.2,0-9.4,4.2-9.4,9.4c0,5.2,4.2,9.4,9.4,9.4s9.4-4.2,9.4-9.4C74.1,461.4,69.9,457.2,64.7,457.2z
		"/>
	<path class="st0" d="M32.6,439.7c-5.2,0-9.4,4.2-9.4,9.4c0,5.2,4.2,9.4,9.4,9.4c5.2,0,9.4-4.2,9.4-9.4
		C42,443.9,37.8,439.7,32.6,439.7z"/>
	
		<rect x="112.4" y="235.8" transform="matrix(0.9579 -0.287 0.287 0.9579 -61.3421 67.5638)" class="st0" width="174.8" height="14.5"/>
	
		<rect x="124.9" y="269.4" transform="matrix(0.9579 -0.287 0.287 0.9579 -70.9747 68.9736)" class="st0" width="149.7" height="14.5"/>
	<path class="st0" d="M166.3,229.4c4.6-1.4,8.3-4.6,10.2-8.9c1.9-4.2,1.9-9-0.1-13.1l-33.4-72c-3.3-7.1-11.6-10.7-19.2-8.4
		l-45.4,13.7c-4.5,1.3-8.1,4.5-10.1,8.7c-1.9,4.1-2,8.8-0.3,12.9l30.9,72.6c2.5,5.9,8.4,9.6,14.6,9.6c1.6,0,3.1-0.2,4.7-0.7
		L166.3,229.4L166.3,229.4z M163.4,214.5c-0.1,0.3-0.5,0.8-1.2,1l-47.9,14.3c-0.8,0.2-1.6-0.1-1.9-0.7l-30.9-72.6
		c-0.1-0.3-0.1-0.7,0-1c0.1-0.3,0.5-0.8,1.2-1l45.4-13.7c0.2-0.1,0.4-0.1,0.6-0.1c0.6,0,1.1,0.3,1.3,0.7l33.4,72
		C163.5,213.7,163.5,214.1,163.4,214.5z"/>
	<path class="st0" d="M390.6,359.7c-0.6-2.9-1.5-5.8-2.7-8.6l-64.3-138.4l-13.1,6.1l50.2,108l-228.1,68.3L32.8,161
		c-2.7-6.4-2.6-13.5,0.5-20c3.2-6.8,9.2-12,16.6-14.3l169.5-51.3c12.3-3.7,25.4,1.9,30.6,13l16.3,35.1l13.1-6.1L263,82.3
		c-8.2-17.6-28.8-26.6-47.9-20.8L45.6,112.8c-11.3,3.4-20.6,11.4-25.5,22c-2.4,5.2-3.6,10.8-3.7,16.4l-0.3,0l-1.8,68.2
		c-0.3,13.2,2.3,26.6,7.7,38.8l96.9,210c6.2,14.9,22.5,27.5,39.7,27.5c3.6,0,7.2-0.5,10.8-1.7l197.2-59.8
		c14.2-4.7,25.8-14.9,31.2-27.2c4-9.3,4.1-19,0.4-26.8L390.6,359.7z M366.8,340.1l5.3,11.4l4.5,12c0.8,4.7,0.2,9.5-1.8,14.1
		c-3.2,7-9.3,12.4-16.8,14.6l-178.8,53.6c-12.6,3.8-25.9-2.1-30.8-13.7l-10-23.5L366.8,340.1z M384.6,401.4
		c-3.7,8.6-12.1,15.8-22.3,19.2l-197.2,59.8c-14.5,4.8-28.6-7.4-32.9-17.8l-97-210.2c-4.5-10.1-6.7-21.4-6.5-32.5l0.8-29.5
		L135,437.7c6.3,14.7,20.8,23.7,36.4,23.7c3.9,0,7.9-0.6,11.9-1.8l178.8-53.6c10-3,18.2-9.7,23.4-18.4
		C387.3,392.9,386.1,398,384.6,401.4z"/>
	<path class="st0" d="M269.3,405.2c5.2,0,9.4-4.2,9.4-9.4c0-5.2-4.2-9.4-9.4-9.4c-5.2,0-9.4,4.2-9.4,9.4
		C259.9,401,264.1,405.2,269.3,405.2z"/>
	<circle class="st0" cx="176.2" cy="336.4" r="12.4"/>
	<circle class="st0" cx="228.5" cy="320.5" r="12.4"/>
	<path class="st0" d="M268.5,304.6c0,6.9,5.6,12.4,12.4,12.4c6.9,0,12.4-5.6,12.4-12.4c0-6.9-5.6-12.4-12.4-12.4
		C274,292.2,268.5,297.8,268.5,304.6z"/>
	<path class="st0" d="M293.8,184.6c1,0.5,2.1,0.7,3.1,0.7c1.6,0,3.3-0.6,4.6-1.6l36.1-29.5h117c4,0,7.2-3.2,7.2-7.2V11.4
		c0-4-3.2-7.2-7.2-7.2H296.9c-4,0-7.2,3.2-7.2,7.2v166.7C289.7,180.9,291.3,183.4,293.8,184.6z M304.2,18.6h143.3v121.1H335.1
		c-1.7,0-3.3,0.6-4.6,1.6l-26.3,21.5V18.6z"/>
	<path class="st0" d="M478.8,113.8V152c0,12.2-9.9,22.1-22.1,22.1H422v14.5h34.8c20.2,0,36.5-16.4,36.5-36.5v-38.3H478.8z"/>
	<rect x="396" y="174" class="st0" width="14.5" height="14.5"/>
	<rect x="478.8" y="92.8" class="st0" width="14.5" height="14.5"/>
	<path class="st0" d="M418.9,110.6l7.7-13.3c4.4-7.6,4.4-16.7,0-24.3c-4.3-7.4-11.9-11.9-20.4-12.2l-0.1-4.3
		c-0.2-12.9-10.8-23.3-23.6-23.3h-12.1c-3.6,0-6.4,2.9-6.4,6.4v21.1h-36.1v12.9h42.5c3.6,0,6.4-2.9,6.4-6.4V46h5.6
		c5.9,0,10.7,4.8,10.8,10.6l0.1,4.9c0.1,6.6,5.6,12.1,12.2,12.1c4.1,0,7.8,2.1,9.9,5.7c2.1,3.6,2.1,7.8,0,11.4l-7.7,13.3
		c-0.5,0.9-1.5,1.5-2.6,1.5h-77.2v12.9h77.2C410.9,118.5,416.1,115.4,418.9,110.6z"/>
</g>
</svg>
