<?xml version="1.0" encoding="utf-8"?>
<!-- Generator: Adobe Illustrator 23.0.0, SVG Export Plug-In . SVG Version: 6.00 Build 0)  -->
<svg version="1.1" id="Layer_1" xmlns="http://www.w3.org/2000/svg" xmlns:xlink="http://www.w3.org/1999/xlink" x="0px" y="0px"
	 viewBox="0 0 500 500" style="enable-background:new 0 0 500 500;" xml:space="preserve">
<style type="text/css">
	.st0{fill:#FFFFFF;}
</style>
<g>
	<rect x="239.1" y="322.8" class="st0" width="21.4" height="21.4"/>
	<polygon class="st0" points="112.7,345.2 132,345.2 140.4,330.9 121.1,330.9 	"/>
	<polygon class="st0" points="87.4,330.9 79,345.2 98.2,345.2 106.7,330.9 	"/>
	<polygon class="st0" points="102.6,377.6 121.8,377.6 130.3,363.3 111,363.3 	"/>
	<polygon class="st0" points="68.8,377.6 88.1,377.6 96.5,363.3 77.2,363.3 	"/>
	<polygon class="st0" points="378.9,330.9 359.6,330.9 368,345.2 387.3,345.2 	"/>
	<polygon class="st0" points="412.6,330.9 393.3,330.9 401.7,345.2 421,345.2 	"/>
	<polygon class="st0" points="369.7,363.3 378.2,377.6 397.4,377.6 389,363.3 	"/>
	<polygon class="st0" points="422.8,363.3 403.5,363.3 411.9,377.6 431.2,377.6 	"/>
	<rect x="368.6" y="184.6" class="st0" width="21.4" height="21.4"/>
	<rect x="368.6" y="138" class="st0" width="21.4" height="37.1"/>
	<rect x="0" y="184.6" class="st0" width="49.7" height="21.4"/>
	<rect x="450.3" y="184.6" class="st0" width="49.7" height="21.4"/>
	
		<rect x="44.9" y="33.3" transform="matrix(0.7071 -0.7071 0.7071 0.7071 -23.7424 55.2044)" class="st0" width="19.8" height="46"/>
	
		<rect x="422.3" y="46.4" transform="matrix(0.7071 -0.7071 0.7071 0.7071 90.6241 331.3074)" class="st0" width="46" height="19.8"/>
	
		<rect x="462.1" y="283" transform="matrix(0.7071 -0.7071 0.7071 0.7071 -80.0578 425.3406)" class="st0" width="22.7" height="52.6"/>
	
		<rect x="0.3" y="298" transform="matrix(0.7071 -0.7071 0.7071 0.7071 -210.9097 109.3938)" class="st0" width="52.6" height="22.7"/>
	<path class="st0" d="M287.3,208.1l-66.1-38.2c-2.6-1.5-5.9-1.5-8.6,0c-2.7,1.5-4.3,4.4-4.3,7.4v76.4c0,3.1,1.6,5.9,4.3,7.4
		c1.3,0.8,2.8,1.1,4.3,1.1c1.5,0,3-0.4,4.3-1.1l66.1-38.2c2.7-1.5,4.3-4.4,4.3-7.4S290,209.7,287.3,208.1z M225.5,238.9v-46.7
		l40.5,23.4L225.5,238.9z"/>
	<path class="st0" d="M496.1,417.1v-6.1l0,0l-76.4-118.3V95.5c0-4.7-3.8-8.6-8.6-8.6H88.8c-4.7,0-8.6,3.8-8.6,8.6v197.2L3.9,410.9
		l0,0v6.1l0,4.5l0,2.7V467h492.3v-42.7l0-2.1L496.1,417.1z M97.4,104h305.3v182.5h-66.9V138c0-4.7-3.8-8.6-8.6-8.6H172.5
		c-4.7,0-8.6,3.8-8.6,8.6v148.5H97.4V104z M181,303.6h137.6v57.3H181V303.6z M181,286.5v-140h137.6v140H181z M93.6,303.6h70.3v65.9
		c0,4.7,3.8,8.6,8.6,8.6h154.7c4.7,0,8.6-3.8,8.6-8.6v-65.9h70.7l65.9,107.3H27.7L93.6,303.6z M479,449.9H21V428H479V449.9z"/>
</g>
</svg>
