<?xml version="1.0" encoding="utf-8"?>
<!-- Generator: Adobe Illustrator 23.0.0, SVG Export Plug-In . SVG Version: 6.00 Build 0)  -->
<svg version="1.1" id="Layer_1" xmlns="http://www.w3.org/2000/svg" xmlns:xlink="http://www.w3.org/1999/xlink" x="0px" y="0px"
	 viewBox="0 0 500 500" style="enable-background:new 0 0 500 500;" xml:space="preserve">
<style type="text/css">
	.st0{fill:#FFFFFF;}
</style>
<g>
	<path class="st0" d="M44,363.1V176.4c0-12.7,10.3-23,23-23h257.8c12.7,0,23,10.3,23,23v40.9h15.5v-40.9c0-21.2-17.3-38.5-38.5-38.5
		H67c-21.2,0-38.5,17.3-38.5,38.5v186.6c0,21.2,17.3,38.5,38.5,38.5h90.8l-18.3,37.8h-26.3v15.5h165.3v-15.5h-26.3L234,401.5h44.6
		v-15.5H67C54.4,386.1,44,375.8,44,363.1z M235.1,439.4h-78.4l18.3-37.8h41.8L235.1,439.4z"/>
	<rect x="77.9" y="439.4" class="st0" width="17.3" height="15.5"/>
	<rect x="196.5" y="295.1" class="st0" width="17.3" height="15.5"/>
	<rect x="165.9" y="295.1" class="st0" width="17.3" height="15.5"/>
	<rect x="99.9" y="323.7" class="st0" width="17.3" height="15.5"/>
	<rect x="77.8" y="213.3" class="st0" width="17.3" height="15.5"/>
	<rect x="372.1" y="449.4" class="st0" width="17.3" height="15.5"/>
	<rect x="420.3" y="356.8" class="st0" width="17.3" height="15.5"/>
	<rect x="385.6" y="285.9" class="st0" width="17.3" height="15.5"/>
	<path class="st0" d="M433.5,237.6H328c-20.2,0-36.6,16.4-36.6,36.6v188.3c0,20.2,16.4,36.6,36.6,36.6h105.5
		c20.2,0,36.6-16.4,36.6-36.6V274.2C470,254,453.6,237.6,433.5,237.6z M328,253.1h105.5c11.6,0,21.1,9.5,21.1,21.1v139.4H306.9
		V274.2C306.9,262.6,316.3,253.1,328,253.1z M433.5,483.6H328c-11.6,0-21.1-9.5-21.1-21.1v-33.4h147.7v33.4
		C454.6,474.1,445.1,483.6,433.5,483.6z"/>
	<rect x="323.8" y="285.9" class="st0" width="49.9" height="15.5"/>
	<rect x="369.4" y="0.9" class="st0" width="15.5" height="30.3"/>
	<rect x="293.5" y="20" transform="matrix(0.766 -0.6428 0.6428 0.766 45.1683 202.8598)" class="st0" width="15.5" height="38.8"/>
	
		<rect x="433.6" y="31.7" transform="matrix(0.6428 -0.766 0.766 0.6428 131.6263 361.0781)" class="st0" width="38.8" height="15.5"/>
	<rect x="323.8" y="324.1" class="st0" width="113.9" height="15.5"/>
	<rect x="323.8" y="356.8" class="st0" width="74.5" height="15.5"/>
	<rect x="150.9" y="182" class="st0" width="127.7" height="15.5"/>
	<rect x="108.5" y="213.3" class="st0" width="170.1" height="15.5"/>
	<rect x="205.1" y="245.5" class="st0" width="73.4" height="15.5"/>
	<rect x="230.9" y="295.1" class="st0" width="47.7" height="15.5"/>
	<rect x="132.5" y="323.7" class="st0" width="146.1" height="15.5"/>
	<path class="st0" d="M75.4,104.1c6.1,0,11.1-5,11.1-11.1c0-6.1-5-11.1-11.1-11.1c-6.1,0-11.1,5-11.1,11.1
		C64.3,99.2,69.3,104.1,75.4,104.1z"/>
	<path class="st0" d="M94.8,71c6.1,0,11.1-5,11.1-11.1c0-6.1-5-11.1-11.1-11.1c-6.1,0-11.1,5-11.1,11.1C83.7,66.1,88.7,71,94.8,71z"
		/>
	<path class="st0" d="M132.5,60c6.1,0,11.1-5,11.1-11.1c0-6.1-5-11.1-11.1-11.1c-6.1,0-11.1,5-11.1,11.1C121.4,55,126.3,60,132.5,60
		z"/>
	<path class="st0" d="M189.5,104.1c6.1,0,11.1-5,11.1-11.1c0-6.1-5-11.1-11.1-11.1c-6.1,0-11.1,5-11.1,11.1
		C178.5,99.2,183.4,104.1,189.5,104.1z"/>
	<path class="st0" d="M170.1,71c6.1,0,11.1-5,11.1-11.1c0-6.1-5-11.1-11.1-11.1c-6.1,0-11.1,5-11.1,11.1C159.1,66.1,164,71,170.1,71
		z"/>
	<path class="st0" d="M377.1,200.5V216c47.5,0,86.2-38.7,86.2-86.2s-38.7-86.2-86.2-86.2S291,82.3,291,129.8h15.5
		c0-39,31.7-70.7,70.7-70.7s70.7,31.7,70.7,70.7C447.8,168.8,416.1,200.5,377.1,200.5z"/>
</g>
</svg>
