<?xml version="1.0" encoding="utf-8"?>
<!-- Generator: Adobe Illustrator 23.0.0, SVG Export Plug-In . SVG Version: 6.00 Build 0)  -->
<svg version="1.1" id="Layer_1" xmlns="http://www.w3.org/2000/svg" xmlns:xlink="http://www.w3.org/1999/xlink" x="0px" y="0px"
	 viewBox="0 0 500 500" style="enable-background:new 0 0 500 500;" xml:space="preserve">
<style type="text/css">
	.st0{fill:#FFFFFF;}
</style>
<g>
	<path class="st0" d="M463.5,72.6H400v-5.9c0-4.9-4-8.9-8.9-8.9s-8.9,4-8.9,8.9v5.9H270c-4.9,0-8.9,4-8.9,8.9v89.8h-16.8
		c-2,0-4,0.7-5.6,2l-32.3,26.4v-38.9c0-0.1,0-0.1,0-0.2c0-0.1,0-0.1,0-0.2V22.8h48.2c4.9,0,8.9-4,8.9-8.9s-4-8.9-8.9-8.9h-57.1
		c-4.9,0-8.9,4-8.9,8.9v137.8H88.9c-30.8,0-56.3,22.8-60.6,52.3h-0.7v8.1c0,0.3,0,0.5,0,0.8v185.3c0,33.7,27.5,61.2,61.3,61.2h267.6
		c33.7,0,61.2-27.5,61.2-61.2V256.7h45.8c4.9,0,8.9-4,8.9-8.9V81.5C472.4,76.6,468.4,72.6,463.5,72.6z M399.9,398.2
		c0,23.9-19.5,43.4-43.4,43.4H88.9c-24,0-43.5-19.5-43.5-43.4V221.8h133.5v-17.8H46.3c4.1-19.7,21.6-34.6,42.6-34.6h99.8v49
		c0,3.4,2,6.6,5.1,8c1.2,0.6,2.5,0.9,3.8,0.9c2,0,4-0.7,5.6-2l44.3-36.2h13.6v96.9c0,3.4,2,6.6,5.1,8c1.2,0.6,2.5,0.9,3.8,0.9
		c2,0,4-0.7,5.6-2l44.3-36.2h80V398.2z M454.6,238.9H316.8c-2.1,0-4,0.7-5.6,2l-32.3,26.4v-87c0,0,0,0,0,0c0,0,0,0,0,0V90.4H391
		c0,0,0,0,0.1,0s0,0,0.1,0h63.5V238.9z"/>
	<path class="st0" d="M280,22.8h14.8c4.9,0,8.9-4,8.9-8.9s-4-8.9-8.9-8.9H280c-4.9,0-8.9,4-8.9,8.9S275.1,22.8,280,22.8z"/>
	<path class="st0" d="M322,22.8h27.1c4.9,0,8.9-4,8.9-8.9S354,5,349.1,5H322c-4.9,0-8.9,4-8.9,8.9S317.1,22.8,322,22.8z"/>
	<path class="st0" d="M376.3,22.8h5.9v5.9c0,4.9,4,8.9,8.9,8.9s8.9-4,8.9-8.9V13.9c0-4.9-4-8.9-8.9-8.9h-14.8c-4.9,0-8.9,4-8.9,8.9
		S371.4,22.8,376.3,22.8z"/>
	<path class="st0" d="M383.5,108.3h-13.3c-3.5,0-6.6,2.3-7.6,5.7l-8.2,28.2h-46.2v15.8h52.1c3.5,0,6.6-2.3,7.6-5.7l8.2-28.2h7.4
		c2.5,0,4.7,2.1,4.7,4.7l0.2,14.4c0.1,8.2,6.8,14.8,15,14.8c5.1,0,9.6,2.6,12.1,7s2.5,9.6,0,14l-9.5,16.4c-0.6,1.1-1.9,1.8-3.2,1.8
		h-94.7v15.8h94.7c6.9,0,13.3-3.7,16.8-9.7l9.5-16.4c5.4-9.3,5.4-20.5,0-29.8c-5.3-9.1-14.6-14.7-25-14.9l-0.2-13.6
		C403.8,117.4,394.6,108.3,383.5,108.3z"/>
	<path class="st0" d="M447.5,374.7c-4.9,0-8.9,4-8.9,8.9V397c0,44.2-36,80.2-80.2,80.2h-15.2c-4.9,0-8.9,4-8.9,8.9
		c0,4.9,4,8.9,8.9,8.9h15.2c54,0,98-44,98-98v-13.4C456.4,378.7,452.4,374.7,447.5,374.7z"/>
	<path class="st0" d="M138.6,236.4H78.3c-4.9,0-8.9,4-8.9,8.9v60.3c0,4.9,4,8.9,8.9,8.9h60.3c4.9,0,8.9-4,8.9-8.9v-60.3
		C147.5,240.4,143.5,236.4,138.6,236.4z M129.7,296.7H87.2v-42.5h42.5V296.7z"/>
	<path class="st0" d="M138.6,336.6H78.3c-4.9,0-8.9,4-8.9,8.9v60.3c0,4.9,4,8.9,8.9,8.9h60.3c4.9,0,8.9-4,8.9-8.9v-60.3
		C147.5,340.6,143.5,336.6,138.6,336.6z M129.7,396.9H87.2v-42.5h42.5V396.9z"/>
	<rect x="158.2" y="389" class="st0" width="151.2" height="17.8"/>
	<polygon class="st0" points="176.7,371.8 176.7,354.1 158.2,354.1 158.9,371.8 	"/>
	<polygon class="st0" points="210.9,371.8 210.9,354.1 192.4,354.1 193.1,371.8 	"/>
	<rect x="158.2" y="294.6" class="st0" width="63.9" height="17.8"/>
	<polygon class="st0" points="176.7,277.5 176.7,259.7 158.2,259.7 158.9,277.5 	"/>
</g>
</svg>
