<?xml version="1.0" encoding="utf-8"?>
<!-- Generator: Adobe Illustrator 23.0.0, SVG Export Plug-In . SVG Version: 6.00 Build 0)  -->
<svg version="1.1" id="Layer_1" xmlns="http://www.w3.org/2000/svg" xmlns:xlink="http://www.w3.org/1999/xlink" x="0px" y="0px"
	 viewBox="0 0 500 500" style="enable-background:new 0 0 500 500;" xml:space="preserve">
<style type="text/css">
	.st0{fill:#FFFFFF;}
</style>
<g>
	<path class="st0" d="M222.6,243.7c0.7-0.2,1.3-0.3,2-0.5c26-7.8,47.3-25.2,60.2-49.1c12.8-23.9,15.6-51.3,7.8-77.2
		c-7.8-26-25.2-47.3-49.1-60.2c-23.9-12.8-51.3-15.6-77.2-7.8c-26,7.8-47.3,25.2-60.2,49.1c-12.8,23.9-15.6,51.3-7.8,77.2
		c1.4,4.8,3.3,9.3,5.4,13.7L4.4,222.4l1.2,1.2H4v51.1l49.6,48.9c0,0.1,0,0.2,0,0.3l2.7,60.4c0.6,13.4,5.9,26.4,15.1,36.7l73.1,72.3
		c1.1,1.1,2.5,1.6,4,1.6c1.5,0,2.9-0.6,4-1.7c2.2-2.2,2.2-5.8,0-8l-72.9-72c-7.2-8.1-11.5-18.5-12-29.4l-2.1-47.5l55.6,53.8
		c1.6,1.6,4,2,6.1,1.1c2.1-0.9,3.5-2.9,3.5-5.2l0.2-63.4c0,0,0,0,0,0c0,0,0,0,0,0c0-3.9,3.2-7.1,7.1-7.1c3.9,0,7.1,3.2,7.1,7.1
		c0,0.1,0.1,0.3,0.1,0.4c0,0.1-0.1,0.3-0.1,0.4V386c0,1.4,0.5,2.7,1.4,3.7l72.3,82.3c1.1,1.3,2.7,1.9,4.2,1.9c1.3,0,2.7-0.5,3.7-1.4
		c2.3-2.1,2.6-5.6,0.5-8l-63.3-72l132.9-41.7v-35.9h-0.4l1.1-0.3L222.6,243.7z M116,103.4c11.4-21.2,30.4-36.7,53.4-43.6
		c8.6-2.6,17.3-3.9,26-3.9c14.7,0,29.3,3.6,42.6,10.8c21.2,11.4,36.7,30.4,43.6,53.4c6.9,23.1,4.5,47.4-7,68.6
		c-11.4,21.2-30.4,36.7-53.4,43.6c-14.7,4.4-30.4,5-45.3,1.7c-1.4-0.3-3-0.1-4.2,0.7l-40.9,25.4c-0.8,0.5-1.5,0.3-1.9,0
		c-0.4-0.2-0.9-0.7-0.9-1.6v-50.5c0-1.3-0.5-2.6-1.3-3.7c-8.1-9.5-14-20.4-17.6-32.5C102.1,149,104.6,124.6,116,103.4z M15.4,233.3
		l104.1,104.1l-0.1,35.1L15.4,270V233.3z M137.9,304.3c-9.8,0-17.7,7.7-18.3,17.3l-94.3-94.3l83.7-28.1c2.4,3.8,4.9,7.6,7.7,11.1
		v48.5c0,4.8,2.6,9.2,6.8,11.5c2,1.1,4.2,1.7,6.4,1.7c2.4,0,4.8-0.7,6.9-2l39-24.2c10.9,2.1,22.1,2.3,33.1,0.8l66.7,63.1L156.3,347
		v-23.5c0-0.1-0.1-0.3-0.1-0.4c0-0.1,0.1-0.3,0.1-0.4C156.3,312.5,148,304.3,137.9,304.3z M285.5,342.5l-129.2,40.6v-24.2
		l129.2-40.5V342.5z"/>
	<rect x="438.1" y="5.1" class="st0" width="17.5" height="39.1"/>
	<rect x="438.1" y="76.6" class="st0" width="17.5" height="40.4"/>
	<rect x="397.7" y="51.1" class="st0" width="32.6" height="17.5"/>
	<rect x="461.8" y="51.1" class="st0" width="34.2" height="17.5"/>
	<rect x="372.4" y="96.8" class="st0" width="17.5" height="39.1"/>
	<rect x="372.4" y="168.3" class="st0" width="17.5" height="40.4"/>
	<rect x="332" y="142.8" class="st0" width="32.6" height="17.5"/>
	<rect x="396.1" y="142.8" class="st0" width="34.2" height="17.5"/>
	<path class="st0" d="M131.9,152.8C131.9,152.8,131.9,152.8,131.9,152.8c3.2,0,5.7-2.6,5.7-5.7c-0.2-33.2,26.6-60.3,59.8-60.5
		c16.3,0.1,31.2,6.1,42.6,17.4c11.4,11.3,17.8,26.4,17.9,42.4c0,3.1,2.4,5.4,5.7,5.6c3.1,0,5.6-2.6,5.6-5.7
		c-0.1-19.1-7.7-37-21.2-50.4c-13.6-13.4-31.8-21-50.7-20.6c-39.4,0.2-71.3,32.5-71.1,71.9C126.3,150.2,128.8,152.8,131.9,152.8z"/>
	<path class="st0" d="M215.1,111.1l-24.2,32.5c-1.9,2.5-1.4,6.1,1.1,7.9c1,0.8,2.2,1.1,3.4,1.1c1.7,0,3.4-0.8,4.5-2.3l24.2-32.5
		c1.9-2.5,1.4-6.1-1.1-7.9C220.5,108.1,217,108.6,215.1,111.1z"/>
</g>
</svg>
