<?xml version="1.0" encoding="utf-8"?>
<!-- Generator: Adobe Illustrator 23.0.0, SVG Export Plug-In . SVG Version: 6.00 Build 0)  -->
<svg version="1.1" id="Layer_1" xmlns="http://www.w3.org/2000/svg" xmlns:xlink="http://www.w3.org/1999/xlink" x="0px" y="0px"
	 viewBox="0 0 2000 2000" style="enable-background:new 0 0 2000 2000;" xml:space="preserve">
<style type="text/css">
	.st0{fill:#edf1f3;}
</style>
<g id="#deepPink-rectangle">
  
	<path class="st0" d="M276.8,803.3L0,749.4l24.5-50.6l204.7,40.9L72.2,600.5l20.3-41.9l206.3,36.5L139.9,460.6l22.6-46.6
		l214.1,183.3l-26.7,55L164.6,620L305,745L276.8,803.3z"/>
	<path class="st0" d="M385.9,471.4c22.1,12.3,43.6,7.9,64.6-13.3c13.5-13.7,19.1-28.6,16.8-44.7l45.1-12.4
		c6.3,33.2-3.7,63.1-30,89.7c-22.6,22.9-47.7,34.4-75.2,34.6c-27.5,0.2-51.8-10.1-72.9-30.9c-20.9-20.6-31.5-44.6-32-72.1
		c-0.4-27.4,9.9-51.9,31.1-73.3c20.1-20.3,43.6-30.1,70.7-29.5c27.1,0.7,51,11.2,71.6,31.6c4.6,4.6,9.1,9.9,13.3,15.9L385.9,471.4z
		 M357.6,444.6l69.8-70.6c-11.4-7.3-22.6-10-33.5-8.2c-10.9,1.8-20.4,6.8-28.4,14.9c-9.5,9.6-14.9,20-16.2,31.1
		C348,422.9,350.8,433.8,357.6,444.6z"/>
	<path class="st0" d="M561.3,414.7l-162.9-233l41.2-28.8l162.9,233L561.3,414.7z"/>
	<path class="st0" d="M709.7,333.8c-26.6,12.4-52.9,13.9-79,4.3c-26.1-9.5-45.3-27.5-57.7-53.8c-12.3-26.3-13.8-52.6-4.4-78.8
		c9.4-26.2,27.3-45.5,53.9-57.9c17.2-8,34.7-11.2,52.7-9.6c18,1.6,33.8,7.7,47.6,18.1l-28.4,41.3c-6.9-5.6-15-8.9-24.1-9.8
		c-9.2-0.9-18.2,0.8-27.1,5c-13.6,6.4-22.8,16.2-27.5,29.4c-4.7,13.2-3.7,26.9,2.9,41c6.5,13.9,16.3,23.2,29.5,28.1
		c13.2,4.9,26.6,4.1,40.2-2.3c9.2-4.3,16.4-10.2,21.6-17.6c5.2-7.5,7.9-15.7,8-24.6l50.1,4.1c-1.3,17.5-7,33.7-17.2,48.7
		C740.5,314.2,726.9,325.7,709.7,333.8z"/>
	<path class="st0" d="M945.8,237.1c-15.9,23.3-38,37.6-66.3,43.1c-28.3,5.4-54.1,0.3-77.3-15.5c-23.2-15.8-37.6-37.8-43-66.1
		c-5.4-28.3-0.3-54.1,15.5-77.3c15.8-23.2,37.8-37.6,66.1-43c28.3-5.4,54.1-0.3,77.5,15.4c23.4,15.7,37.8,37.7,43.2,66
		C966.9,188,961.7,213.8,945.8,237.1z M830.5,224.1c11.7,8.1,25,10.7,39.8,7.8c14.8-2.8,26.2-10.2,34.2-22
		c8-11.9,10.6-25.4,7.6-40.7c-2.9-15.3-10.3-27-22.2-35c-11.9-8-25.2-10.6-40-7.8c-14.8,2.8-26.1,10.2-34,22
		c-7.9,11.8-10.4,25.4-7.5,40.7C811.4,204.4,818.8,216.1,830.5,224.1z"/>
	<path class="st0" d="M1228.1,79c22.1,3,38.8,12.5,50.2,28.7c11.3,16.2,15.3,36.4,12.1,60.6l-16,118.9l-49.8-6.7l15.5-115.4
		c1.6-11.6-0.1-21-4.9-28.2c-4.8-7.2-12.3-11.5-22.6-12.9c-11.3-1.5-20.6,1-27.9,7.6c-7.3,6.6-11.9,17-13.8,31.1l-14.6,108.4
		l-49.8-6.7l15.5-115.4c1.6-11.6-0.1-21-4.9-28.2c-4.8-7.2-12.3-11.5-22.6-12.9c-11.1-1.5-20.4,1.1-27.9,7.6
		c-7.6,6.6-12.3,16.9-14.2,31.1l-14.6,108.4l-49.8-6.7l25.9-193l49.8,6.7l-2.7,20.5c13.9-15.7,32.9-21.9,57.1-18.7
		c23.7,3.2,39.9,14.8,48.8,34.8C1182.2,82.3,1202.6,75.6,1228.1,79z"/>
	<path class="st0" d="M1358.7,250.3c-4.7,24.9,6.3,43.9,33.1,57.1c17.2,8.5,33.1,9.1,47.7,1.8l26,38.8c-29.5,16.4-61,16.4-94.6-0.1
		c-28.9-14.2-47.7-34.4-56.6-60.4c-8.9-26.1-6.8-52.4,6.3-78.9c13-26.3,32.4-44,58.3-53.1c25.9-9.1,52.3-7,79.4,6.3
		c25.6,12.6,42.4,31.9,50.3,57.8c7.9,25.9,5.5,51.9-7.4,78c-2.9,5.8-6.5,11.7-10.9,17.7L1358.7,250.3z M1375.2,215l89.1,43.9
		c3.3-13.1,2.3-24.6-2.8-34.4c-5.2-9.8-12.9-17.2-23.1-22.2c-12.1-6-23.6-7.8-34.6-5.5C1392.7,199,1383.2,205.1,1375.2,215z"/>
	<path class="st0" d="M1714.4,421l-31.4-30.9l-56.8,57.7c-4.7,4.8-7,9.5-6.8,14.1c0.2,4.6,2.5,9.3,6.9,14.1
		c4.3,4.8,10.1,10.4,17.3,16.8l-32,32.5c-27.3-21.4-42.4-40.8-45.2-58.2c-2.8-17.3,5.2-35.5,23.9-54.6l56.8-57.7l-24.1-23.8
		l33.9-34.4l24.1,23.8l27.6-28l46.4,24.4l-38.2,38.8l31.4,30.9L1714.4,421z"/>
	<path class="st0" d="M1732.1,654.4c-27.6-5.6-49.4-20.4-65.4-44.4c-16-24-21.2-49.7-15.7-77.3c5.5-27.5,20.3-49.3,44.3-65.3
		c24-16,49.7-21.2,77.3-15.7c27.5,5.5,49.3,20.3,65.3,44.3c16,24,21.2,49.8,15.8,77.4c-5.5,27.6-20.2,49.4-44.2,65.4
		C1785.5,654.9,1759.7,660.1,1732.1,654.4z M1699.4,543.1c-2.9,13.9-0.2,27.2,8.2,39.7c8.3,12.5,19.5,20.2,33.6,23
		c14,2.8,27.5-0.1,40.5-8.7c13-8.6,20.9-20,23.7-34c2.8-14,0.1-27.3-8.3-39.9c-8.3-12.5-19.5-20.2-33.5-22.9
		c-14-2.7-27.4,0.3-40.4,8.9C1710.2,517.9,1702.3,529.2,1699.4,543.1z"/>
	<path class="st0" d="M1984.9,884.8l10.3,49.2l-190.6,39.8l-10.3-49.2l22.5-4.7c-21.6-10.9-35.2-29.6-40.8-56.3
		c-5.3-25.4-0.1-49.2,15.5-71.5c15.6-22.2,37.6-36.3,65.8-42.2c28.2-5.9,53.9-1.8,77.2,12.3c23.2,14.1,37.5,33.9,42.8,59.3
		c5.6,26.7,0.6,49.3-14.8,67.9L1984.9,884.8z M1832,822.1c-8,12-10.4,25.6-7.2,40.9c3.2,15.2,10.8,26.8,23,34.8
		c12.1,7.9,26.1,10.3,41.8,7c15.8-3.3,27.6-11,35.5-23.1c7.9-12.1,10.3-25.8,7.1-41.1c-3.2-15.2-10.8-26.8-22.9-34.6
		c-12.1-7.8-26-10.1-41.8-6.8C1851.8,802.4,1839.9,810,1832,822.1z"/>
	<path class="st0" d="M1997.2,1121.8c-1.9,26.1-13.4,47.8-34.6,64.8c-21.1,17.1-46.1,24.6-74.8,22.5c-28.7-2.1-52.3-13.1-70.8-33.1
		c-18.5-20-26.7-43-24.8-69.1c2-27.2,12.9-47.5,32.9-60.9l-100.6-7.3l3.6-50.1l271.8,19.7l-3.6,50.1l-22.9-1.7
		C1991.3,1073,1999.2,1094.6,1997.2,1121.8z M1858.8,1063.7c-11,9.4-17,21.8-18.1,37.3c-1.1,15.5,3,28.8,12.5,39.8
		c9.5,11,22.2,17,38.3,18.2c16,1.2,29.6-3,40.5-12.5c11-9.5,17-22,18.1-37.5c1.1-15.5-3.1-28.7-12.5-39.6
		c-9.5-10.8-22.3-16.8-38.3-18C1883.2,1050.3,1869.7,1054.4,1858.8,1063.7z"/>
	<path class="st0" d="M1921.5,1308.8c10.6,8.1,17.3,18.1,20.2,30.2c2.9,12.1,2.4,24.5-1.4,37.2l-53.7-16.1c6.1-14.2,7.1-28.2,2.8-42
		c-4.2-13.9-15.3-23.5-33.2-28.9l-89.1-26.7l14.4-48.1l186.5,55.9l-14.4,48.1L1921.5,1308.8z"/>
	<path class="st0" d="M1743.3,1330.4l177.6,79.8l-20.6,45.8l-177.6-79.8L1743.3,1330.4z M1932,1442.5c3.4-7.6,9.1-12.9,17.2-16
		c8.1-3.1,15.9-2.9,23.5,0.5c7.6,3.4,13,9.2,16.1,17.3c3.2,8.1,3.1,16-0.3,23.5c-3.5,7.8-9.4,13.2-17.5,16.2
		c-8.2,3-16.1,2.8-23.6-0.6c-7.6-3.4-12.9-9.1-16-17.2C1928.2,1458.3,1928.5,1450.3,1932,1442.5z"/>
	<path class="st0" d="M1804.5,1516c-4.4-2.8-9.8-2.2-16.2,1.8c-6.5,4-13.4,9.5-20.9,16.4c-7.4,6.9-15.4,13.5-24,19.7
		c-8.5,6.2-18.4,9.8-29.5,10.8c-11.1,1-22.3-2.2-33.4-9.4c-16.8-10.9-25.6-25.5-26.5-43.9c-0.9-18.4,4.7-36.9,16.9-55.7
		c21.8-33.5,49.6-48,83.4-43.3l-3.2,49.9c-17.3-4.4-31.3,1.7-42,18.2c-9.8,15-10,25.6-0.6,31.7c4.4,2.8,9.8,2.2,16.2-1.8
		c6.5-4,13.5-9.4,21-16.3c7.5-6.9,15.6-13.4,24.3-19.5c8.6-6.2,18.4-9.8,29.2-11c10.8-1.2,21.6,1.7,32.2,8.6
		c16.1,10.5,24.9,24.6,26.5,42.5c1.5,17.9-3.4,35.6-14.9,53.3c-8.6,13.3-19.5,23.4-32.5,30.4c-13.1,7-27.2,10-42.4,9.1l3.7-48.6
		c14.5,2,25.7-3.1,33.6-15.3c3.5-5.4,5.3-10.7,5.2-15.9C1810.7,1522.6,1808.6,1518.6,1804.5,1516z"/>
	<path class="st0" d="M1656.6,1774.2l-36.5,34.5l-133.8-141.4l36.5-34.5l15.8,16.7c-2.1-24.1,6.8-45.5,26.6-64.3
		c18.9-17.8,41.8-25.9,69-24.3c27.1,1.7,50.6,13,70.4,33.9c19.8,20.9,29.8,45,30,72.2c0.2,27.2-9.2,49.7-28,67.5
		c-19.8,18.7-41.7,26.4-65.6,23L1656.6,1774.2z M1629.8,1611.1c-14.4-0.5-27.3,4.6-38.6,15.3c-11.3,10.7-17.2,23.3-17.6,37.8
		c-0.4,14.5,4.9,27.6,16,39.3c11.1,11.7,23.8,17.7,38.3,18.1c14.5,0.4,27.4-4.8,38.7-15.5c11.3-10.7,17.1-23.3,17.4-37.7
		c0.3-14.4-5.1-27.5-16.1-39.1C1656.9,1617.6,1644.2,1611.6,1629.8,1611.1z"/>
	<path class="st0" d="M1461.8,1677.3l152.4,239.9l-42.4,26.9l-152.4-239.9L1461.8,1677.3z"/>
	<path class="st0" d="M1347.4,1746.9c3-8.7,8.5-15,16.7-19c8.2-4,16.6-4.5,25.3-1.5c8.7,3,15,8.5,19,16.7c4,8.2,4.5,16.6,1.5,25.3
		c-3,8.7-8.5,15-16.7,19c-8.2,4-16.6,4.5-25.3,1.5c-8.7-3-15-8.5-19-16.7C1345,1764,1344.5,1755.6,1347.4,1746.9z"/>
</g>
</svg>
